<svg width="25" height="24" viewBox="0 0 25 24" fill="none" xmlns="http://www.w3.org/2000/svg">
<path d="M18.107 10.4948L13.1353 2.57775C13.0631 2.47651 12.9678 2.39398 12.8573 2.33703C12.7468 2.28008 12.6243 2.25037 12.5 2.25037C12.3757 2.25037 12.2532 2.28008 12.1427 2.33703C12.0322 2.39398 11.9369 2.47651 11.8647 2.57775L6.8705 10.5323C6.17666 11.6515 5.79017 12.9338 5.75 14.25C5.75 16.0402 6.46116 17.7571 7.72703 19.023C8.9929 20.2888 10.7098 21 12.5 21C14.2902 21 16.0071 20.2888 17.273 19.023C18.5388 17.7571 19.25 16.0402 19.25 14.25C19.2069 12.9194 18.8125 11.6238 18.107 10.4948ZM12.5 19.5C11.1082 19.4982 9.77384 18.9445 8.78966 17.9603C7.80548 16.9762 7.25179 15.6418 7.25 14.25C7.28986 13.2012 7.6049 12.1813 8.1635 11.2928L8.86475 10.1753L16.4202 17.7308C15.9295 18.2867 15.3263 18.732 14.6504 19.0372C13.9745 19.3423 13.2415 19.5003 12.5 19.5008V19.5Z" fill="#4B3EAE"/>
</svg>
