<svg width="24" height="24" viewBox="0 0 24 24" fill="none" xmlns="http://www.w3.org/2000/svg">
<g clip-path="url(#clip0_10_92)">
<path d="M4 4.99954H12.5C12.9644 5.00843 13.4222 4.88775 13.8218 4.65103C14.2215 4.41431 14.5473 4.07092 14.7627 3.65937C14.9782 3.24783 15.0747 2.7844 15.0414 2.32108C15.0082 1.85775 14.8465 1.41285 14.5745 1.03627C14.3026 0.659701 13.931 0.366347 13.5017 0.189117C13.0723 0.0118865 12.602 -0.0422103 12.1436 0.032894C11.6852 0.107998 11.2568 0.309333 10.9064 0.614317C10.5561 0.9193 10.2976 1.31587 10.16 1.75954" stroke="#4B3EAE" stroke-width="2" stroke-linecap="round" stroke-linejoin="round"/>
<path d="M3 12H18.5C18.9644 11.9911 19.4222 12.1118 19.8218 12.3485C20.2215 12.5852 20.5473 12.9286 20.7627 13.3402C20.9782 13.7517 21.0747 14.2151 21.0414 14.6785C21.0082 15.1418 20.8465 15.5867 20.5745 15.9633C20.3026 16.3398 19.931 16.6332 19.5017 16.8104C19.0723 16.9877 18.602 17.0418 18.1436 16.9667C17.6852 16.8915 17.2568 16.6902 16.9064 16.3852C16.5561 16.0802 16.2976 15.6837 16.16 15.24" stroke="#4B3EAE" stroke-width="2" stroke-linecap="round" stroke-linejoin="round"/>
<path d="M4 16H9.5C9.96443 15.9911 10.4222 16.1118 10.8218 16.3485C11.2215 16.5852 11.5473 16.9286 11.7627 17.3402C11.9782 17.7517 12.0747 18.2151 12.0414 18.6785C12.0082 19.1418 11.8465 19.5867 11.5745 19.9633C11.3026 20.3398 10.931 20.6332 10.5017 20.8104C10.0723 20.9877 9.60203 21.0418 9.14362 20.9667C8.68522 20.8915 8.2568 20.6902 7.90643 20.3852C7.55605 20.0802 7.29758 19.6837 7.16 19.24" stroke="#4B3EAE" stroke-width="2" stroke-linecap="round" stroke-linejoin="round"/>
</g>
<defs>
<clipPath id="clip0_10_92">
<rect width="24" height="24" fill="white"/>
</clipPath>
</defs>
</svg>
